<svg id="visual" viewBox="0 0 900 450" width="900" height="450" xmlns="http://www.w3.org/2000/svg" xmlns:xlink="http://www.w3.org/1999/xlink" version="1.1"><rect x="0" y="0" width="900" height="450" fill="#001122"></rect><defs><linearGradient id="grad1_0" x1="50%" y1="100%" x2="100%" y2="0%"><stop offset="10%" stop-color="#fcaf3c" stop-opacity="1"></stop><stop offset="90%" stop-color="#fcaf3c" stop-opacity="1"></stop></linearGradient></defs><defs><linearGradient id="grad1_1" x1="50%" y1="100%" x2="100%" y2="0%"><stop offset="10%" stop-color="#fcaf3c" stop-opacity="1"></stop><stop offset="90%" stop-color="#ce5864" stop-opacity="1"></stop></linearGradient></defs><defs><linearGradient id="grad1_2" x1="50%" y1="100%" x2="100%" y2="0%"><stop offset="10%" stop-color="#5e3561" stop-opacity="1"></stop><stop offset="90%" stop-color="#ce5864" stop-opacity="1"></stop></linearGradient></defs><defs><linearGradient id="grad1_3" x1="50%" y1="100%" x2="100%" y2="0%"><stop offset="10%" stop-color="#5e3561" stop-opacity="1"></stop><stop offset="90%" stop-color="#001122" stop-opacity="1"></stop></linearGradient></defs><defs><linearGradient id="grad2_0" x1="0%" y1="100%" x2="50%" y2="0%"><stop offset="10%" stop-color="#fcaf3c" stop-opacity="1"></stop><stop offset="90%" stop-color="#fcaf3c" stop-opacity="1"></stop></linearGradient></defs><defs><linearGradient id="grad2_1" x1="0%" y1="100%" x2="50%" y2="0%"><stop offset="10%" stop-color="#ce5864" stop-opacity="1"></stop><stop offset="90%" stop-color="#fcaf3c" stop-opacity="1"></stop></linearGradient></defs><defs><linearGradient id="grad2_2" x1="0%" y1="100%" x2="50%" y2="0%"><stop offset="10%" stop-color="#ce5864" stop-opacity="1"></stop><stop offset="90%" stop-color="#5e3561" stop-opacity="1"></stop></linearGradient></defs><defs><linearGradient id="grad2_3" x1="0%" y1="100%" x2="50%" y2="0%"><stop offset="10%" stop-color="#001122" stop-opacity="1"></stop><stop offset="90%" stop-color="#5e3561" stop-opacity="1"></stop></linearGradient></defs><g transform="translate(900, 450)"><path d="M-202.5 0C-178.3 -24.3 -154.1 -48.6 -140.3 -81C-126.4 -113.4 -122.9 -153.8 -101.3 -175.4C-79.6 -197 -39.8 -199.7 0 -202.5L0 0Z" fill="#272646"></path><path d="M-151.9 0C-133.7 -18.2 -115.6 -36.5 -105.2 -60.8C-94.8 -85 -92.2 -115.3 -75.9 -131.5C-59.7 -147.7 -29.8 -149.8 0 -151.9L0 0Z" fill="#99426b"></path><path d="M-101.2 0C-89.2 -12.2 -77.1 -24.3 -70.1 -40.5C-63.2 -56.7 -61.5 -76.9 -50.6 -87.7C-39.8 -98.5 -19.9 -99.9 0 -101.2L0 0Z" fill="#f17d51"></path><path d="M-50.6 0C-44.6 -6.1 -38.5 -12.2 -35.1 -20.3C-31.6 -28.3 -30.7 -38.4 -25.3 -43.8C-19.9 -49.2 -9.9 -49.9 0 -50.6L0 0Z" fill="#fcaf3c"></path></g><g transform="translate(0, 0)"><path d="M202.5 0C193.1 32.9 183.7 65.7 168 97C152.3 128.3 130.3 158 101.3 175.4C72.2 192.7 36.1 197.6 0 202.5L0 0Z" fill="#272646"></path><path d="M151.9 0C144.8 24.6 137.8 49.3 126 72.7C114.2 96.2 97.7 118.5 75.9 131.5C54.1 144.5 27.1 148.2 0 151.9L0 0Z" fill="#99426b"></path><path d="M101.2 0C96.6 16.4 91.9 32.9 84 48.5C76.2 64.1 65.2 79 50.6 87.7C36.1 96.3 18 98.8 0 101.2L0 0Z" fill="#f17d51"></path><path d="M50.6 0C48.3 8.2 45.9 16.4 42 24.2C38.1 32.1 32.6 39.5 25.3 43.8C18 48.2 9 49.4 0 50.6L0 0Z" fill="#fcaf3c"></path></g></svg>